<svg id="visual" viewBox="0 0 900 600" width="900" height="600" xmlns="http://www.w3.org/2000/svg" xmlns:xlink="http://www.w3.org/1999/xlink" version="1.1"><rect x="0" y="0" width="900" height="600" fill="#f5f5f6"></rect><path d="M0 377L15 388.2C30 399.3 60 421.7 90 419.8C120 418 150 392 180 387.8C210 383.7 240 401.3 270 400.8C300 400.3 330 381.7 360 375.5C390 369.3 420 375.7 450 386C480 396.3 510 410.7 540 416.5C570 422.3 600 419.7 630 412.2C660 404.7 690 392.3 720 384C750 375.7 780 371.3 810 379.3C840 387.3 870 407.7 885 417.8L900 428L900 601L885 601C870 601 840 601 810 601C780 601 750 601 720 601C690 601 660 601 630 601C600 601 570 601 540 601C510 601 480 601 450 601C420 601 390 601 360 601C330 601 300 601 270 601C240 601 210 601 180 601C150 601 120 601 90 601C60 601 30 601 15 601L0 601Z" fill="#003752"></path><path d="M0 452L15 446.2C30 440.3 60 428.7 90 421.8C120 415 150 413 180 412C210 411 240 411 270 418.2C300 425.3 330 439.7 360 437.3C390 435 420 416 450 416.3C480 416.7 510 436.3 540 440.3C570 444.3 600 432.7 630 426.5C660 420.3 690 419.7 720 425.3C750 431 780 443 810 446.7C840 450.3 870 445.7 885 443.3L900 441L900 601L885 601C870 601 840 601 810 601C780 601 750 601 720 601C690 601 660 601 630 601C600 601 570 601 540 601C510 601 480 601 450 601C420 601 390 601 360 601C330 601 300 601 270 601C240 601 210 601 180 601C150 601 120 601 90 601C60 601 30 601 15 601L0 601Z" fill="#003849"></path><path d="M0 496L15 495.8C30 495.7 60 495.3 90 492.2C120 489 150 483 180 478.8C210 474.7 240 472.3 270 472C300 471.7 330 473.3 360 474C390 474.7 420 474.3 450 468.8C480 463.3 510 452.7 540 456.2C570 459.7 600 477.3 630 482.7C660 488 690 481 720 473C750 465 780 456 810 456.2C840 456.3 870 465.7 885 470.3L900 475L900 601L885 601C870 601 840 601 810 601C780 601 750 601 720 601C690 601 660 601 630 601C600 601 570 601 540 601C510 601 480 601 450 601C420 601 390 601 360 601C330 601 300 601 270 601C240 601 210 601 180 601C150 601 120 601 90 601C60 601 30 601 15 601L0 601Z" fill="#00373f"></path><path d="M0 523L15 520C30 517 60 511 90 506.3C120 501.7 150 498.3 180 495.8C210 493.3 240 491.7 270 494.5C300 497.3 330 504.7 360 513C390 521.3 420 530.7 450 530.3C480 530 510 520 540 515.5C570 511 600 512 630 507.3C660 502.7 690 492.3 720 489.5C750 486.7 780 491.3 810 500C840 508.7 870 521.3 885 527.7L900 534L900 601L885 601C870 601 840 601 810 601C780 601 750 601 720 601C690 601 660 601 630 601C600 601 570 601 540 601C510 601 480 601 450 601C420 601 390 601 360 601C330 601 300 601 270 601C240 601 210 601 180 601C150 601 120 601 90 601C60 601 30 601 15 601L0 601Z" fill="#003632"></path><path d="M0 566L15 565.2C30 564.3 60 562.7 90 561.2C120 559.7 150 558.3 180 554C210 549.7 240 542.3 270 543.2C300 544 330 553 360 552.2C390 551.3 420 540.7 450 542.7C480 544.7 510 559.3 540 561.8C570 564.3 600 554.7 630 554.2C660 553.7 690 562.3 720 559.8C750 557.3 780 543.7 810 539.8C840 536 870 542 885 545L900 548L900 601L885 601C870 601 840 601 810 601C780 601 750 601 720 601C690 601 660 601 630 601C600 601 570 601 540 601C510 601 480 601 450 601C420 601 390 601 360 601C330 601 300 601 270 601C240 601 210 601 180 601C150 601 120 601 90 601C60 601 30 601 15 601L0 601Z" fill="#003321"></path></svg>