<svg width="1440" height="86" viewBox="0 0 1440 86" fill="none" xmlns="http://www.w3.org/2000/svg">
<path d="M0 50.9646C0 50.9646 37.0793 35.4334 71.1111 34.3498C105.651 33.2663 135.111 34.3498 177.27 39.7677C234.667 46.9915 345.397 76.2479 404.318 60.3555C463.238 44.4632 465.778 43.7408 495.746 33.6275C529.27 22.0694 597.333 -1.04677 681.651 0.0368042C771.556 1.12038 934.603 59.9943 1001.65 57.1048C1008.76 56.7436 1035.17 54.2153 1054.98 49.881C1074.29 45.5467 1102.73 36.1558 1141.33 32.9051C1157.59 31.4603 1183.49 28.932 1213.46 29.6544C1221.08 30.0156 1245.46 31.0991 1274.41 35.4334C1303.37 39.7677 1330.29 46.6303 1354.67 48.7974C1406.98 52.7705 1440 46.9915 1440 46.9915V86H0V50.9646ZM115.302 45.1855C118.857 48.7974 125.46 46.6303 137.143 46.6303C148.825 46.6303 168.127 50.9646 166.603 50.6034C165.079 50.2422 150.857 45.1855 136.127 43.7408C120.889 41.9348 112.254 41.5736 115.302 45.1855ZM208.762 54.9377C208.762 54.9377 220.952 55.66 237.206 58.1884C253.46 61.0779 289.524 68.3017 313.905 70.83C355.556 74.8031 394.159 70.83 390.603 70.4688C386.54 70.1076 341.841 72.636 301.206 66.4957C284.444 63.9674 253.968 58.5496 238.222 56.7436C221.46 54.5765 208.762 54.9377 208.762 54.9377ZM499.302 55.2989C490.667 57.8272 566.857 38.3229 593.27 33.2663C603.937 31.0991 624.762 27.4872 644.063 26.0425C663.873 24.5977 689.27 24.5977 688.762 24.2365C688.762 23.5141 659.302 21.347 631.873 24.2365C604.444 27.126 605.46 28.2096 593.27 30.0156C573.968 32.9051 507.936 52.7705 499.302 55.2989ZM428.698 61.0779C427.682 61.0779 432.762 62.5227 453.079 57.1048C473.397 51.687 487.111 44.4632 488.127 43.7408C489.143 43.3796 470.349 50.2422 454.603 54.5765C439.365 58.9108 429.206 61.0779 428.698 61.0779ZM2.53967 64.3286C3.04761 63.9674 12.1903 60.3555 26.9205 55.2989C41.6506 50.2422 61.9683 45.1855 60.9524 45.5467C59.9364 45.5467 43.1746 47.7139 23.3651 54.5765C3.55554 61.4391 2.03174 64.6898 2.53967 64.3286ZM1281.02 44.102C1280.51 44.8243 1290.67 44.8244 1303.87 48.4362C1317.08 52.0481 1331.3 54.2153 1343.49 55.66C1363.81 58.5496 1402.92 55.2989 1400.89 54.9377C1399.37 54.5765 1359.24 56.0212 1337.4 52.4093C1326.22 50.6034 1325.21 50.6034 1308.44 46.6303C1291.68 42.6572 1281.52 43.0184 1281.02 44.102ZM1069.21 52.7705C1067.17 53.1317 1051.43 58.5496 1026.54 62.1615C1001.65 66.1346 981.333 63.9674 981.333 65.051C981.333 66.1346 986.413 68.3017 1012.83 66.1346C1039.24 63.9674 1071.24 52.4093 1069.21 52.7705ZM1076.32 61.8003C1075.3 61.4391 1059.05 66.4957 1047.37 67.9405C1035.68 69.0241 1037.71 69.7465 1037.71 70.1076C1037.71 70.4688 1043.3 70.83 1051.43 69.3853C1060.06 67.5793 1077.33 62.1615 1076.32 61.8003ZM964.571 70.1076C964.063 69.3853 946.794 67.2181 936.127 63.6062C925.46 59.9943 926.984 61.4391 926.476 61.8003C925.968 62.1615 930.54 64.6898 938.667 66.4957C946.794 68.6629 965.079 70.83 964.571 70.1076ZM1107.81 45.9079C1108.32 44.8243 1106.29 44.102 1098.16 46.6303C1090.03 49.1586 1084.95 51.3258 1086.98 50.9646C1089.02 50.6034 1091.56 49.5198 1099.68 48.0751C1108.32 46.6303 1107.3 46.9915 1107.81 45.9079ZM1264.76 41.2125C1265.78 41.2125 1254.1 38.3229 1248 37.9617C1241.9 37.6006 1237.84 37.6006 1237.84 38.6841C1237.84 39.7677 1238.35 40.4901 1245.97 40.1289C1254.1 39.7677 1263.75 41.2125 1264.76 41.2125ZM666.921 9.78893C667.429 9.42773 679.111 10.8725 705.016 10.8725C730.413 10.8725 774.095 19.5411 792.381 23.5141C810.667 27.4872 741.587 9.42774 708.571 8.70536C675.556 7.98298 666.413 10.1501 666.921 9.78893Z" fill="#003752"/>
</svg>
