<svg width="1440" height="183" viewBox="0 0 1440 183" fill="none" xmlns="http://www.w3.org/2000/svg">
<path d="M1674 74.3205C1674 74.3205 1621.93 107.267 1574.15 109.565C1525.65 111.864 1484.28 109.565 1425.08 98.0725C1344.49 82.7486 1189.01 20.6872 1106.27 54.3996C1023.54 88.112 1019.97 89.6444 977.89 111.098C930.817 135.616 835.245 184.652 716.849 182.353C590.607 180.055 361.661 55.1658 267.515 61.2953C257.53 62.0615 220.442 67.4248 192.626 76.6191C165.524 85.8134 125.583 105.734 71.3778 112.63C48.5545 115.695 12.1799 121.058 -29.9005 119.526C-40.599 118.76 -74.8339 116.461 -115.488 107.267C-156.142 98.0725 -193.943 83.5148 -228.178 78.9177C-301.64 70.4896 -348 82.7486 -348 82.7486V0H1674V74.3205ZM1512.1 86.5796C1507.1 78.9177 1497.83 83.5148 1481.43 83.5148C1465.02 83.5148 1437.92 74.3205 1440.06 75.0867C1442.2 75.8529 1462.17 86.5796 1482.86 89.6444C1504.25 93.4753 1516.38 94.2415 1512.1 86.5796ZM1380.86 65.8924C1380.86 65.8924 1363.75 64.3601 1340.92 58.9967C1318.1 52.8672 1267.46 37.5434 1233.23 32.18C1174.74 23.7519 1120.54 32.18 1125.53 32.9462C1131.23 33.7124 1194 28.3491 1251.06 41.3743C1274.59 46.7377 1317.39 58.2305 1339.5 62.0615C1363.03 66.6586 1380.86 65.8924 1380.86 65.8924ZM972.897 65.1262C985.022 59.7629 878.038 101.137 840.95 111.864C825.972 116.461 796.73 124.123 769.627 127.188C741.812 130.252 706.15 130.252 706.863 131.019C706.863 132.551 748.231 137.148 786.745 131.019C825.259 124.889 823.833 122.591 840.95 118.76C868.053 112.63 960.772 70.4896 972.897 65.1262ZM1072.04 52.8672C1073.46 52.8672 1066.33 49.8024 1037.8 61.2953C1009.27 72.7882 990.015 88.112 988.588 89.6444C987.162 90.4105 1013.55 75.8529 1035.66 66.6586C1057.06 57.4643 1071.32 52.8672 1072.04 52.8672ZM1670.43 45.9715C1669.72 46.7377 1656.88 54.3996 1636.2 65.1262C1615.52 75.8529 1586.99 86.5796 1588.41 85.8134C1589.84 85.8134 1613.38 81.2163 1641.19 66.6586C1669.01 52.101 1671.15 45.2053 1670.43 45.9715ZM-124.76 88.8782C-124.047 87.3458 -138.311 87.3458 -156.855 79.6839C-175.399 72.022 -195.369 67.4248 -212.487 64.36C-241.016 58.2305 -295.934 65.1262 -293.081 65.8924C-290.942 66.6586 -234.597 63.5939 -203.928 71.2558C-188.237 75.0867 -186.811 75.0867 -163.274 83.5148C-139.738 91.9429 -125.473 91.1767 -124.76 88.8782ZM172.656 70.4896C175.509 69.7234 197.619 58.2305 232.567 50.5686C267.515 42.1405 296.044 46.7377 296.044 44.4391C296.044 42.1405 288.912 37.5434 251.824 42.1405C214.737 46.7377 169.803 71.2558 172.656 70.4896ZM162.671 51.3348C164.097 52.101 186.921 41.3743 203.325 38.3096C219.729 36.011 216.876 34.4786 216.876 33.7124C216.876 32.9462 209.031 32.18 197.619 35.2448C185.494 39.0757 161.244 50.5686 162.671 51.3348ZM319.581 33.7124C320.294 35.2448 344.544 39.8419 359.522 47.5038C374.499 55.1658 372.36 52.101 373.073 51.3348C373.786 50.5686 367.367 45.2053 355.956 41.3743C344.544 36.7772 318.868 32.18 319.581 33.7124ZM118.451 85.0472C117.738 87.3458 120.59 88.8782 132.002 83.5148C143.414 78.1515 150.546 73.5543 147.693 74.3205C144.84 75.0867 141.274 77.3853 129.862 80.4501C117.738 83.5148 119.164 82.7486 118.451 85.0472ZM-101.937 95.0077C-103.363 95.0077 -86.9587 101.137 -78.4 101.903C-69.8413 102.67 -64.1355 102.67 -64.1355 100.371C-64.1355 98.0725 -64.8487 96.5401 -75.5471 97.3063C-86.9587 98.0725 -100.51 95.0077 -101.937 95.0077ZM737.532 161.666C736.819 162.433 720.415 159.368 684.04 159.368C648.379 159.368 587.041 140.979 561.365 132.551C535.689 124.123 632.688 162.433 679.048 163.965C725.407 165.497 738.245 160.9 737.532 161.666Z" fill="white"/>
</svg>
